<?xml version="1.0" standalone="no"?>
<!DOCTYPE svg PUBLIC "-//W3C//DTD SVG 20010904//EN"
 "http://www.w3.org/TR/2001/REC-SVG-20010904/DTD/svg10.dtd">
<svg version="1.0" xmlns="http://www.w3.org/2000/svg"
 width="1024.000000pt" height="1024.000000pt" viewBox="0 0 1024.000000 1024.000000"
 preserveAspectRatio="xMidYMid meet">
<metadata>
Created by potrace 1.16, written by Peter Selinger 2001-2019
</metadata>
<g transform="translate(0.000000,1024.000000) scale(0.100000,-0.100000)"
fill="#000000" stroke="none">
<path d="M120 5120 l0 -5000 5000 0 5000 0 0 5000 0 5000 -5000 0 -5000 0 0
-5000z m5980 4605 c66 -34 93 -127 49 -176 l-20 -24 12 24 c15 31 6 109 -16
130 -15 15 -16 14 -4 -11 18 -41 -12 -84 -89 -126 -61 -33 -64 -34 -82 -17
-11 10 -24 34 -30 53 -30 109 80 199 180 147z m-1373 -67 c33 -33 43 -106 19
-143 -9 -13 -31 -32 -49 -40 -22 -11 -27 -12 -15 -2 9 7 19 25 22 39 2 15 9
35 15 46 14 26 14 69 1 77 -6 4 -10 -10 -10 -35 0 -44 -33 -90 -65 -90 -11 0
-15 -7 -13 -22 2 -18 -3 -24 -20 -26 -33 -5 -71 24 -89 66 -20 47 -5 100 39
137 28 24 39 27 86 23 40 -4 60 -11 79 -30z m1249 -206 c30 -27 30 -29 43
-182 20 -244 78 -630 116 -773 8 -32 15 -60 15 -63 0 -3 -14 4 -30 16 -25 18
-55 24 -148 32 -95 8 -135 17 -217 48 -113 43 -311 94 -430 110 -127 17 -358
13 -508 -10 -73 -11 -137 -22 -144 -25 -7 -2 -14 -1 -17 3 -8 13 -16 182 -9
182 5 0 19 -9 33 -20 14 -11 35 -20 47 -20 44 0 73 87 48 146 -18 44 -52 60
-96 45 -18 -6 -33 -10 -35 -9 -1 2 -5 107 -9 234 l-8 232 39 4 c22 3 42 4 45
2 12 -7 81 -195 75 -202 -4 -3 -9 4 -13 17 -3 13 -11 20 -19 17 -9 -4 -12 3
-9 24 2 16 0 29 -3 29 -19 -3 -25 2 -12 11 12 7 12 12 2 22 -9 9 -12 8 -12 -6
0 -9 -4 -14 -10 -11 -6 4 -6 -2 0 -17 6 -13 15 -35 21 -50 6 -16 16 -25 22
-21 5 3 7 2 4 -4 -8 -12 22 -93 34 -93 5 0 4 12 -1 26 -13 34 -13 44 3 39 6
-3 20 -27 30 -53 34 -86 60 -142 68 -142 5 0 13 -17 18 -38 23 -84 27 -82 131
54 95 124 95 124 134 122 l39 -3 65 -122 c36 -68 68 -123 72 -123 39 0 292
245 470 455 56 66 104 126 107 133 7 18 15 15 49 -16z m-721 -85 c19 -15 27
-34 29 -62 2 -22 1 -29 -1 -15 -5 28 -21 50 -35 50 -5 0 -4 -9 2 -20 17 -33
-12 -77 -60 -90 -22 -6 -44 -18 -49 -28 -9 -15 -12 -15 -36 9 -14 14 -28 42
-32 62 -5 33 -2 41 35 77 33 34 46 40 80 40 28 0 49 -7 67 -23z m-1929 -108
c15 -29 18 -31 57 -25 49 7 114 -6 135 -28 13 -13 13 -21 2 -60 -12 -45 -23
-56 -34 -37 -7 11 -98 43 -104 36 -3 -2 3 -35 13 -72 l18 -68 70 -17 c93 -23
147 -75 147 -143 0 -26 -15 -34 -23 -12 -3 6 -6 -3 -6 -21 -1 -19 3 -31 9 -27
6 4 7 -2 1 -17 -7 -21 -55 -61 -83 -70 -8 -3 -7 -23 5 -68 9 -36 15 -65 14
-66 -1 -1 -12 -4 -23 -8 -19 -6 -24 1 -44 54 l-22 60 -64 0 c-66 0 -108 11
-136 37 -16 14 -16 18 3 54 10 22 22 39 25 39 3 0 17 -9 31 -20 14 -11 41 -20
59 -20 39 0 41 9 20 80 -14 48 -23 53 -101 66 -77 12 -147 117 -130 195 8 36
48 85 85 104 21 11 27 20 23 35 -14 53 27 68 53 19z m1944 -33 c0 -2 -8 -10
-17 -17 -16 -13 -17 -12 -4 4 13 16 21 21 21 13z m1327 -292 c15 -14 22 -23
16 -19 -9 4 -13 -3 -13 -22 0 -16 -7 -38 -15 -49 -8 -12 -11 -25 -7 -29 4 -5
2 -5 -4 -2 -6 4 -20 -3 -30 -16 -19 -21 -19 -21 0 -7 11 8 17 10 13 4 -4 -7
-23 -21 -43 -33 l-35 -21 -30 29 c-23 23 -29 38 -29 71 0 52 13 76 53 100 45
28 90 26 124 -6z m-1887 -24 c0 -13 -10 -24 -26 -31 -35 -13 -41 -5 -20 26 20
30 46 33 46 5z m2520 -8 c45 -25 74 -81 66 -127 -8 -42 -24 -47 -18 -6 5 34
-20 86 -49 102 -28 15 -33 6 -9 -16 48 -43 11 -104 -82 -136 -53 -18 -53 -18
-70 4 -36 46 -30 107 15 156 41 44 92 52 147 23z m-3130 -147 c0 -3 -12 -18
-26 -35 l-27 -29 -23 35 -24 35 22 30 22 30 28 -30 c15 -17 28 -32 28 -36z
m2341 -41 c7 -8 25 -22 41 -30 26 -14 28 -18 22 -57 -10 -64 -26 -82 -20 -22
9 82 -5 84 -61 8 -28 -37 -83 -102 -121 -143 l-70 -75 -21 45 c-11 25 -21 60
-21 78 0 29 -3 32 -20 27 -12 -4 -20 -2 -20 4 0 12 248 180 266 181 6 0 17 -7
25 -16z m602 -81 c-18 -27 -17 -27 -33 -8 -11 13 -10 14 4 9 9 -3 16 -1 16 4
0 24 -21 20 -76 -14 -33 -19 -102 -56 -154 -81 -52 -24 -108 -51 -124 -59 -16
-8 -33 -14 -38 -14 -14 0 -103 -43 -110 -54 -4 -6 -8 -2 -8 10 0 15 8 24 27
29 40 10 229 101 368 178 118 66 120 66 131 45 9 -18 9 -27 -3 -45z m-1 -66
c-54 -85 -363 -592 -393 -644 -13 -24 -28 -43 -32 -43 -19 0 -16 31 7 76 38
73 450 692 454 682 2 -5 -14 -37 -36 -71z m-32 31 c0 -4 -4 -8 -9 -8 -6 0 -12
4 -15 8 -3 5 1 9 9 9 8 0 15 -4 15 -9z m-4129 -42 c20 -14 20 -14 -8 -46 l-28
-31 -29 30 -30 31 29 30 c24 25 31 28 37 16 5 -9 18 -22 29 -30z m2524 15
c302 -64 638 -229 895 -437 99 -81 273 -262 289 -302 12 -28 11 -35 -6 -64
-14 -24 -27 -34 -50 -36 -27 -3 -45 9 -135 89 -56 50 -157 132 -223 181 -66
50 -118 93 -115 97 7 9 16 5 109 -56 102 -66 178 -124 269 -204 68 -59 98 -71
108 -44 15 38 -174 239 -340 364 l-97 73 -77 -35 -77 -35 -45 19 c-25 10 -90
37 -145 60 -173 71 -441 148 -570 164 -63 7 -331 135 -312 148 8 6 7 7 -4 4
-9 -3 -34 1 -55 8 l-39 13 45 6 c25 3 59 8 75 10 17 2 113 3 215 1 141 -2 209
-8 285 -24z m-3394 -33 c12 -24 35 -58 52 -75 l31 -33 -22 -27 c-13 -16 -35
-54 -50 -85 -15 -32 -30 -57 -33 -58 -3 0 -12 19 -20 42 -7 24 -29 62 -47 86
l-32 43 29 37 c17 20 37 54 46 75 8 20 17 37 20 37 2 0 14 -19 26 -42z m4969
38 c0 -2 -7 -7 -16 -10 -8 -3 -12 -2 -9 4 6 10 25 14 25 6z m-2260 -43 c103
-21 359 -152 334 -170 -13 -10 -31 -4 -99 33 -126 68 -342 139 -321 106 4 -6
-10 -9 -36 -8 -39 1 -42 -1 -48 -31 -4 -17 -19 -52 -34 -76 -14 -25 -26 -53
-26 -61 0 -9 -5 -16 -10 -16 -6 0 -20 -15 -31 -34 -11 -19 -33 -39 -48 -46
-18 -7 -31 -21 -33 -35 -4 -20 0 -25 26 -28 17 -2 -16 -5 -74 -6 -58 -2 -98
-5 -90 -8 8 -3 26 -10 39 -15 32 -11 21 -20 -37 -29 -26 -4 -80 -15 -119 -25
l-73 -17 0 -35 c0 -27 -3 -33 -16 -28 -9 3 -12 2 -9 -5 4 -5 -3 -19 -16 -30
l-22 -19 34 -1 c35 -2 12 -6 -143 -29 -82 -12 -156 -39 -233 -85 -32 -20 -60
-34 -62 -32 -8 8 59 87 111 133 88 76 191 140 271 169 l73 27 21 58 c27 75 97
168 173 231 93 78 183 117 293 129 69 7 102 5 205 -17z m2215 17 c-3 -5 -15
-10 -26 -10 -10 0 -19 -4 -19 -10 0 -5 -31 -26 -70 -45 -75 -38 -95 -41 -30
-4 22 13 40 27 40 31 0 5 4 7 9 3 5 -3 12 -1 16 5 3 5 1 10 -6 10 -27 0 7 19
41 23 19 2 39 5 43 5 5 1 5 -2 2 -8z m1399 -171 c25 -29 26 -33 11 -53 -26
-36 -65 -115 -65 -131 0 -35 -29 -12 -45 36 -10 28 -31 66 -47 85 l-30 34 31
32 c17 17 31 35 31 39 0 3 9 28 21 54 l21 48 23 -56 c12 -31 34 -70 49 -88z
m-648 26 l24 -26 -25 -27 -25 -27 -24 30 -24 30 21 23 c26 27 25 27 53 -3z
m-2398 -86 c31 -10 65 -19 75 -19 9 0 17 -5 17 -10 0 -6 -10 -8 -24 -4 -30 7
-46 -14 -23 -31 14 -10 10 -12 -25 -13 -59 -3 -61 -12 -2 -12 101 0 73 -17
-38 -23 -125 -7 -227 -31 -301 -72 -56 -32 -62 -20 -19 44 40 59 84 104 139
140 42 28 53 31 96 26 27 -4 74 -15 105 -26z m1310 -31 c7 -7 12 -20 12 -29 0
-19 -57 -66 -86 -71 -32 -5 -29 36 6 76 34 38 49 43 68 24z m-1178 -18 c0 -5
-2 -10 -4 -10 -3 0 -8 5 -11 10 -3 6 -1 10 4 10 6 0 11 -4 11 -10z m-2849
-121 l33 -42 -35 -28 c-19 -16 -36 -29 -40 -29 -3 0 -20 16 -39 35 l-34 35 34
35 c19 19 37 35 41 35 4 0 22 -19 40 -41z m5387 -76 c-17 -18 -35 -33 -39 -33
-3 0 -23 16 -44 36 l-38 35 39 40 39 40 38 -42 38 -42 -33 -34z m-4048 80 c-8
-3 -27 -12 -42 -20 -16 -7 -28 -11 -28 -9 0 9 54 35 70 35 13 -1 13 -1 0 -6z
m1548 -10 c12 -3 22 -11 22 -19 0 -10 -20 -12 -99 -7 -101 6 -156 0 -146 -17
3 -6 2 -10 -4 -10 -15 0 -81 -60 -81 -74 0 -6 -19 -22 -41 -36 -22 -13 -35
-26 -29 -28 20 -7 -2 -22 -33 -22 -53 0 -188 -27 -247 -49 -30 -11 -79 -36
-107 -55 -29 -19 -53 -32 -53 -29 0 16 81 111 129 152 142 118 266 177 416
200 58 9 226 6 273 -6z m587 -26 c4 5 5 2 1 -4 -5 -10 -11 -10 -26 0 -11 6
-20 15 -20 20 0 4 -5 5 -12 1 -7 -5 -8 -3 -3 5 5 9 13 7 29 -8 12 -12 26 -18
31 -14z m-2245 -17 c-35 -24 -54 -31 -30 -11 14 11 30 21 35 21 6 0 3 -5 -5
-10z m-836 -142 c9 -21 30 -54 48 -74 28 -32 30 -38 18 -57 -7 -12 -18 -31
-24 -42 -6 -10 -17 -25 -23 -33 -7 -7 -13 -22 -13 -32 0 -10 -5 -22 -10 -25
-6 -3 -7 -17 -4 -30 3 -14 -1 -30 -12 -43 -16 -20 -18 -20 -30 -4 -8 9 -14 30
-14 45 0 33 -50 135 -79 161 l-21 19 32 39 c31 40 77 140 78 169 0 34 15 27
26 -13 6 -24 19 -60 28 -80z m776 108 c0 -2 -8 -10 -17 -17 -16 -13 -17 -12
-4 4 13 16 21 21 21 13z m-45 -34 c-6 -5 -31 -26 -56 -48 l-46 -39 49 48 c27
26 52 47 56 47 3 0 2 -4 -3 -8z m3635 -30 c0 -36 68 -159 105 -189 34 -29 36
-31 16 -38 -29 -9 -80 -76 -102 -135 -10 -28 -19 -52 -19 -55 0 -3 0 -17 0
-31 0 -14 -4 -23 -9 -19 -5 3 -12 -9 -14 -27 -3 -29 -4 -28 -5 9 -1 23 -6 45
-12 48 -5 3 -10 14 -9 23 0 14 2 14 10 -3 7 -16 8 -14 3 10 -10 52 -55 142
-84 170 l-29 28 35 41 c35 41 77 120 89 169 8 28 25 28 25 -1z m-560 -22 c-6
-11 -13 -20 -16 -20 -2 0 0 9 6 20 6 11 13 20 16 20 2 0 0 -9 -6 -20z m-2677
-47 c-7 -2 -19 -2 -25 0 -7 3 -2 5 12 5 14 0 19 -2 13 -5z m-526 -31 c-8 -9
-26 -40 -40 -69 -13 -28 -47 -77 -75 -108 -58 -63 -73 -110 -52 -159 14 -34
14 -44 4 -127 -5 -46 -2 -64 17 -105 15 -33 22 -64 20 -95 -3 -56 17 -99 59
-129 17 -12 42 -43 55 -70 13 -26 36 -57 50 -68 15 -12 21 -23 15 -27 -6 -4
-37 -46 -70 -93 -33 -48 -74 -104 -91 -124 -24 -28 -33 -50 -37 -87 -5 -61 14
-96 86 -158 l49 -42 -19 -108 c-17 -89 -18 -119 -10 -171 15 -87 46 -147 97
-185 24 -18 51 -45 61 -62 10 -16 63 -76 118 -133 l101 -104 -35 -29 c-57 -48
-276 -190 -420 -274 -313 -182 -386 -258 -425 -445 -8 -39 -15 -97 -15 -128 0
-31 -4 -63 -9 -70 -4 -7 -72 -42 -151 -77 -479 -214 -832 -521 -1000 -871 -54
-111 -107 -273 -119 -367 -6 -43 -12 -203 -13 -355 l-1 -277 -8 235 c-5 154
-11 236 -18 238 -6 2 -11 10 -11 18 0 8 -9 24 -20 36 -11 12 -20 28 -20 35 0
7 -4 13 -10 13 -5 0 -10 9 -10 20 0 11 -4 20 -9 20 -5 0 -12 18 -16 40 -4 22
-11 40 -17 40 -5 0 -7 12 -3 28 3 16 -1 43 -10 65 -8 20 -15 53 -15 74 0 21
-4 44 -9 51 -4 7 -4 36 0 65 4 29 9 77 11 107 4 50 2 58 -20 74 -24 18 -25 18
-47 -5 -13 -13 -35 -58 -49 -99 -16 -47 -26 -65 -26 -48 0 27 -19 51 -21 26 0
-7 -5 0 -9 16 -5 16 -6 34 -3 39 3 6 1 7 -5 3 -7 -4 -12 -1 -12 8 0 8 -10 27
-23 43 -39 46 -41 63 -12 94 24 25 38 59 52 132 5 27 22 38 24 15 1 -7 4 -2 9
12 l7 25 8 -30 c11 -44 29 -85 37 -85 5 0 8 -4 8 -10 0 -12 37 -50 49 -50 13
0 22 -28 10 -34 -5 -2 -4 -3 3 -2 10 2 13 34 13 122 1 218 7 324 20 324 13 0
25 43 25 86 0 13 8 32 19 43 12 12 17 27 14 45 -3 15 -1 26 6 26 6 0 11 9 11
20 0 11 5 20 10 20 20 0 10 62 -15 92 -29 35 -30 41 -10 99 22 64 37 89 52 89
9 0 8 -5 -5 -18 -9 -9 -26 -43 -36 -75 -19 -56 -19 -57 0 -78 40 -44 94 -63
180 -62 l81 1 23 -55 c12 -30 28 -57 36 -60 15 -6 104 32 104 45 0 5 -9 35
-20 66 l-19 57 35 31 c48 43 74 97 74 157 0 55 -11 86 -52 148 -36 54 -96 83
-176 84 -57 1 -61 3 -67 28 -3 14 -8 34 -11 43 -4 15 2 14 53 -7 39 -16 62
-20 70 -13 25 20 62 171 45 182 -5 3 -34 13 -63 21 l-54 15 53 -3 c44 -2 53 1
58 17 5 14 8 15 14 6 6 -9 10 -7 15 9 3 11 4 25 0 30 -3 5 3 16 13 23 11 7 23
29 27 48 12 55 48 121 62 116 7 -3 14 2 14 12 4 49 7 63 19 77 7 8 10 21 7 30
-8 19 13 32 23 14 6 -9 10 -4 15 17 3 16 10 37 16 46 5 10 9 24 9 32 0 7 8 16
19 19 13 3 20 18 25 52 5 33 11 45 21 41 7 -2 21 4 31 15 9 10 13 19 7 19 -6
0 -20 33 -32 73 -12 39 -28 92 -36 117 -11 32 -11 40 -2 29 7 -9 23 -54 36
-100 30 -105 36 -112 81 -105 77 12 140 36 140 54 0 9 -11 62 -25 117 -14 55
-25 103 -25 106 0 3 25 16 55 28 148 61 239 243 207 413 -14 75 -57 165 -107
228 -23 28 -16 23 19 -15 31 -33 56 -66 56 -73 0 -7 5 -10 10 -7 6 4 11 -6 11
-22 1 -17 3 -21 6 -10 3 13 15 17 49 17 37 0 44 3 44 20 0 11 17 37 38 57 20
20 31 33 25 29 -8 -4 -13 -1 -13 9 0 9 4 14 9 10 5 -3 16 2 24 10 9 8 20 15
26 15 6 0 11 4 11 9 0 5 9 13 20 16 11 3 20 12 20 18 0 7 12 23 25 36 14 13
25 29 25 37 0 8 7 14 16 14 9 0 18 9 21 20 3 11 12 20 19 20 8 0 14 9 14 20 0
15 7 20 25 20 18 0 25 5 25 20 0 11 7 20 15 20 8 0 29 14 47 30 17 17 42 33
55 36 12 4 20 10 17 15 -3 5 2 12 10 15 9 3 16 11 16 17 0 16 51 67 67 67 7 0
13 7 13 15 0 8 -5 15 -11 15 -28 0 20 129 63 170 12 11 18 20 12 21 -5 0 1 4
13 9 13 5 35 35 53 72 29 59 57 98 68 98 3 0 -2 -8 -11 -18z m3139 -28 c-20
-37 -22 -51 -15 -77 5 -18 9 -33 9 -34 0 -2 9 -3 20 -3 11 0 20 -4 20 -10 0
-5 7 -10 15 -10 8 0 15 -9 15 -20 0 -12 7 -20 16 -20 9 0 29 -13 44 -30 15
-16 34 -30 42 -30 19 0 78 -59 78 -78 0 -15 41 -53 51 -47 5 4 9 1 9 -4 0 -6
5 -11 11 -11 7 0 20 -9 30 -21 9 -11 21 -19 26 -17 4 2 9 -7 11 -20 4 -26 33
-60 48 -55 5 2 32 -20 59 -48 28 -29 44 -49 38 -45 -8 4 -5 -6 5 -23 9 -17 25
-31 34 -31 19 0 78 -53 78 -70 0 -5 9 -10 20 -10 20 0 56 -43 47 -57 -3 -5 1
-17 9 -28 8 -10 14 -15 14 -11 0 5 7 3 16 -5 23 -19 91 -161 86 -181 -4 -21 9
-23 26 -6 8 8 12 8 12 1 0 -6 9 -13 21 -16 17 -5 18 -3 7 10 -11 14 -10 15 10
9 17 -6 32 -1 55 16 39 30 57 41 57 35 0 -13 -152 -117 -162 -111 -6 4 -8 3
-4 -4 3 -6 -5 -19 -19 -30 -33 -26 -32 -41 12 -124 45 -85 110 -160 172 -195
25 -15 48 -28 50 -29 2 -2 -14 -51 -34 -109 -34 -94 -36 -108 -23 -121 19 -19
155 -67 168 -59 6 3 20 29 31 56 30 68 34 56 5 -15 l-23 -57 22 -57 c13 -32
32 -61 44 -67 12 -5 21 -18 21 -28 0 -10 4 -16 9 -12 14 8 32 -30 24 -51 -4
-11 -3 -15 5 -10 16 9 105 -171 99 -201 -2 -13 0 -23 4 -23 5 0 6 -8 2 -17 -3
-10 -3 -15 2 -11 13 12 31 -16 39 -61 8 -51 23 -84 36 -76 4 3 6 -3 3 -13 -2
-10 5 -29 17 -42 12 -14 24 -37 27 -52 l6 -28 18 21 c24 28 80 69 93 69 6 0
-3 -9 -20 -20 -83 -53 -120 -190 -75 -277 23 -47 87 -113 108 -113 18 0 16
-17 -8 -70 l-21 -45 -30 63 c-16 34 -36 62 -44 62 -22 0 -118 -46 -133 -63
-32 -40 25 -162 99 -211 22 -14 40 -30 40 -35 0 -5 -12 -34 -26 -66 -15 -31
-22 -60 -18 -65 5 -5 33 -18 62 -29 l53 -20 20 46 c10 25 22 55 25 68 5 21 10
22 79 21 68 -1 77 1 122 33 39 27 43 29 25 9 -13 -14 -44 -36 -69 -49 -30 -16
-41 -25 -30 -27 9 -2 17 -10 17 -18 0 -8 -4 -12 -10 -9 -6 4 -10 -13 -10 -44
0 -28 4 -51 9 -51 5 0 12 -35 16 -77 4 -43 10 -82 15 -88 4 -5 10 -43 13 -84
3 -41 11 -77 16 -81 7 -4 6 -82 -4 -240 -15 -249 -22 -302 -36 -310 -5 -3 -13
-37 -19 -75 -10 -69 -30 -138 -43 -151 -11 -11 -8 -26 3 -19 7 4 9 -79 8 -242
l-2 -248 -6 225 c-8 243 -19 320 -69 469 -94 281 -288 526 -601 757 -185 137
-498 296 -766 389 l-111 39 -7 74 c-21 250 -123 561 -270 819 l-63 112 63 55
c143 127 257 376 286 629 14 113 1 263 -31 391 -41 158 -142 357 -231 459 -43
49 -48 61 -78 181 l-31 129 25 30 c35 41 54 82 52 109 -2 19 46 108 59 108 2
0 -7 -21 -21 -46z m-1478 -11 c-16 -2 -40 -2 -55 0 -16 2 -3 4 27 4 30 0 43
-2 28 -4z m-140 -10 c-10 -2 -28 -2 -40 0 -13 2 -5 4 17 4 22 1 32 -1 23 -4z
m-1268 -25 c-13 -12 -58 -36 -100 -53 -92 -37 -167 -90 -205 -145 -30 -43 -48
-47 -53 -12 -5 31 79 110 167 156 78 41 164 74 195 75 18 1 18 -1 -4 -21z
m1183 15 c-7 -2 -21 -2 -30 0 -10 3 -4 5 12 5 17 0 24 -2 18 -5z m-60 -10 c-7
-2 -19 -2 -25 0 -7 3 -2 5 12 5 14 0 19 -2 13 -5z m-2888 -88 l21 -78 84 2
c55 1 105 -4 140 -15 74 -21 190 -83 190 -100 0 -8 -4 -14 -9 -14 -9 0 -13 -9
-57 -132 l-28 -77 -62 59 c-67 64 -89 76 -150 81 -39 4 -39 3 -38 -31 1 -36
51 -239 64 -259 3 -7 51 -21 104 -31 167 -34 262 -94 316 -199 53 -105 28
-271 -57 -376 -14 -16 -61 -51 -106 -76 -53 -29 -81 -51 -78 -60 2 -8 14 -52
27 -98 13 -47 20 -87 15 -90 -4 -4 -8 -17 -7 -31 1 -20 -4 -25 -21 -24 -16 0
-23 -5 -23 -18 0 -27 -17 -13 -23 19 -3 16 -16 66 -29 113 -20 72 -26 85 -42
82 -13 -3 -17 0 -13 11 5 13 -13 16 -111 19 -135 4 -170 18 -255 96 -39 36
-46 40 -30 17 24 -34 59 -67 88 -83 15 -8 16 -11 5 -12 -9 0 -36 19 -61 43
-56 53 -90 93 -69 83 9 -4 8 -2 -2 7 -23 18 -23 21 10 97 37 87 39 90 72 90
22 0 35 -10 64 -50 20 -27 53 -58 75 -70 47 -23 139 -28 147 -7 5 14 -25 151
-56 258 l-20 67 -48 7 c-26 3 -80 18 -120 31 -40 13 -77 22 -82 19 -5 -3 -12
0 -16 6 -5 8 -2 10 7 5 8 -4 5 0 -5 8 -11 9 -25 16 -31 16 -19 0 -91 98 -116
160 -21 53 -18 166 7 220 29 62 94 124 170 161 36 18 67 35 69 39 2 3 -5 40
-16 80 -23 89 -20 102 20 94 23 -5 32 -2 37 10 12 32 27 10 49 -69z m2780 61
c-38 -14 -71 -23 -73 -21 -6 5 102 44 123 44 11 0 -11 -10 -50 -23z m-700 -77
c94 -28 178 -68 279 -128 l84 -51 5 -127 c4 -71 9 -143 13 -160 6 -32 5 -34
-57 -63 -128 -59 -204 -73 -409 -74 -165 -1 -194 1 -265 22 -101 30 -185 74
-251 134 -107 98 -95 221 32 337 79 72 175 117 289 135 63 9 211 -4 280 -25z
m1300 -9 c129 -41 228 -100 399 -238 36 -30 66 -56 66 -58 0 -20 -107 -172
-154 -220 -69 -68 -134 -104 -251 -136 -70 -19 -105 -22 -280 -22 -222 0 -319
13 -481 65 -72 23 -99 37 -122 63 -35 40 -58 128 -68 259 l-7 85 64 47 c83 61
174 107 279 139 120 37 185 45 345 42 111 -3 154 -8 210 -26z m3009 -31 c5 -5
-3 -40 -19 -84 -15 -42 -26 -77 -24 -79 2 -2 29 -16 59 -32 30 -16 75 -49 99
-74 43 -44 91 -111 91 -128 0 -5 -18 -20 -40 -35 -46 -30 -55 -22 -10 9 l30
21 -30 0 c-22 0 -48 -15 -95 -54 -35 -29 -69 -53 -75 -53 -5 0 -10 10 -10 23
0 13 -12 46 -26 75 -39 78 -85 80 -101 3 -9 -47 -10 -51 -13 -53 -1 -2 -4 -15
-6 -30 -3 -16 -14 -49 -24 -74 -11 -25 -20 -47 -20 -49 0 -1 19 -15 43 -30
109 -73 200 -186 183 -230 -3 -8 -1 -15 4 -15 6 0 10 -5 10 -11 0 -5 -4 -8 -8
-5 -4 3 -13 -20 -20 -51 -14 -67 -58 -138 -112 -182 -22 -18 -38 -36 -36 -39
3 -4 -3 -8 -12 -9 -9 -1 -42 -11 -72 -22 -42 -15 -79 -20 -157 -21 -56 0 -113
-5 -127 -11 -22 -10 -65 -94 -99 -192 -5 -13 -13 -16 -34 -11 -16 4 -30 8 -32
10 -2 2 14 50 37 106 22 57 44 111 47 120 5 12 -4 21 -40 37 -46 20 -86 47
-131 88 -34 32 -30 19 13 -35 37 -46 37 -47 5 -17 -32 29 -122 171 -122 193 0
13 178 152 195 152 19 0 31 -20 48 -80 25 -86 99 -161 125 -126 10 13 82 209
82 223 0 5 -36 42 -80 82 -44 40 -92 93 -107 119 -25 42 -28 57 -28 137 0 76
4 99 26 145 71 152 194 214 373 189 43 -5 79 -9 80 -7 2 2 13 30 26 63 33 86
34 87 83 68 23 -9 46 -20 51 -24z m-1896 -126 c25 -95 40 -177 46 -263 7 -89
-6 -57 -49 125 -19 83 -39 165 -44 183 -8 28 -7 32 9 32 14 0 22 -17 38 -77z
m173 -340 c146 -232 207 -518 164 -765 -30 -171 -117 -371 -204 -469 -43 -48
-187 -159 -206 -159 -4 0 23 33 60 73 215 230 305 457 305 762 0 176 -46 358
-134 533 -26 51 -40 92 -33 92 3 0 24 -30 48 -67z m-3100 -64 c23 -11 38 -23
35 -26 -11 -11 34 -82 74 -116 38 -32 158 -97 180 -97 6 0 10 -5 10 -11 0 -13
-64 -4 -125 18 -79 28 -122 61 -168 130 -25 38 -64 85 -86 106 -39 37 -49 56
-35 70 4 4 22 -7 41 -23 18 -17 52 -39 74 -51z m4923 50 c-10 -11 -28 -25 -39
-31 -11 -5 -4 4 15 21 41 36 51 40 24 10z m-5983 -106 c13 -16 12 -17 -3 -4
-10 7 -18 15 -18 17 0 8 8 3 21 -13z m2171 -41 c24 -11 66 -25 95 -31 42 -10
51 -17 50 -32 -1 -20 -10 -21 -71 -2 -12 3 -16 1 -12 -6 21 -34 -84 30 -110
67 -19 27 -9 28 48 4z m43 -138 c138 -91 293 -166 460 -221 98 -32 118 -41 80
-37 -75 10 -222 48 -301 79 -134 54 -300 165 -354 237 -26 36 -29 37 115 -58z
m-376 -40 c-143 -145 -249 -218 -293 -201 -26 10 -19 20 29 46 24 13 81 54
127 93 96 80 198 151 206 143 3 -3 -28 -39 -69 -81z m-648 -15 c-38 -8 -55
-21 -92 -76 -31 -44 -46 -52 -66 -32 -14 14 19 86 62 138 l27 31 50 -27 51
-28 -32 -6z m89 -9 c20 -6 21 -8 5 -8 -11 0 -29 3 -40 8 -25 11 1 11 35 0z
m83 -17 c-7 -2 -21 -2 -30 0 -10 3 -4 5 12 5 17 0 24 -2 18 -5z m-327 -134
c25 -27 26 -31 8 -25 -29 9 -71 -9 -79 -33 -8 -26 16 -72 57 -106 18 -16 92
-56 163 -91 72 -35 127 -63 124 -63 -15 -2 -182 60 -235 87 -120 60 -166 121
-143 189 6 20 24 42 43 54 17 10 31 19 32 19 0 0 13 -14 30 -31z m-2354 -240
l-35 -35 -35 37 -34 38 34 40 33 40 36 -42 36 -42 -35 -36z m7850 6 l36 -40
-39 -45 c-22 -26 -42 -40 -46 -35 -5 6 -23 27 -42 47 l-34 37 39 39 c22 21 42
38 45 38 3 -1 21 -19 41 -41z m-7014 -70 c61 -15 85 -31 32 -20 -49 9 -130 36
-130 42 0 3 10 2 23 -2 12 -3 46 -13 75 -20z m1580 9 c18 -8 32 -18 32 -20 0
-3 -10 -24 -21 -47 -30 -58 -37 -163 -15 -221 16 -42 66 -96 146 -159 42 -32
34 -34 -23 -6 -168 85 -208 173 -172 373 9 53 18 96 19 96 2 0 17 -7 34 -16z
m39 -66 c-3 -8 -6 -5 -6 6 -1 11 2 17 5 13 3 -3 4 -12 1 -19z m4366 -5 c-7 -2
-21 -2 -30 0 -10 3 -4 5 12 5 17 0 24 -2 18 -5z m-80 -18 c-3 -9 -8 -14 -10
-11 -3 3 -2 9 2 15 9 16 15 13 8 -4z m-5780 -12 c-7 -2 -21 -2 -30 0 -10 3 -4
5 12 5 17 0 24 -2 18 -5z m-1277 -175 c6 -22 -33 -77 -57 -77 -9 -1 -30 16
-47 37 l-30 39 36 36 36 37 28 -27 c15 -15 30 -35 34 -45z m833 -48 c8 -14 29
-42 49 -62 l35 -37 -25 -20 c-14 -12 -38 -50 -54 -86 -16 -36 -31 -65 -35 -65
-3 0 -14 21 -24 46 -9 25 -34 63 -54 85 -35 36 -37 40 -20 54 23 22 79 128 79
152 0 36 14 34 25 -4 6 -21 17 -49 24 -63z m6786 23 c8 -35 50 -108 77 -135
19 -19 19 -19 -14 -56 -29 -33 -51 -73 -73 -137 -6 -16 -8 -17 -13 -5 -30 88
-49 127 -74 156 l-30 34 36 41 c19 23 43 62 52 86 19 50 29 54 39 16z m-2368
-29 c105 -50 199 -170 210 -268 l5 -43 -78 -33 c-432 -180 -818 -248 -1364
-237 -302 6 -456 25 -663 82 -132 36 -215 72 -307 135 -62 42 -190 157 -190
170 0 5 26 -3 58 -17 146 -65 345 -116 567 -144 148 -19 513 -16 660 5 331 47
650 161 910 325 45 28 92 50 108 51 16 0 53 -12 84 -26z m3108 -4 c17 -18 17
-21 1 -45 -21 -32 -29 -31 -51 1 -16 24 -16 27 1 45 21 24 27 24 49 -1z
m-7045 -90 c0 -5 -5 -10 -11 -10 -5 0 -7 5 -4 10 3 6 8 10 11 10 2 0 4 -4 4
-10z m1998 -25 c238 -43 679 -46 897 -6 128 24 141 25 99 7 -101 -44 -427 -81
-639 -72 -209 8 -465 54 -500 89 -11 10 -5 10 143 -18z m-3090 -38 l22 -23
-25 -24 -25 -23 -25 23 -25 24 22 23 c12 13 24 23 28 23 4 0 16 -10 28 -23z
m8006 -96 l-23 -25 -20 25 c-19 24 -19 24 0 45 l20 22 23 -22 23 -21 -23 -24z
m-2497 -218 c179 -356 247 -661 223 -1000 -12 -168 -39 -282 -103 -442 -70
-175 -126 -259 -252 -387 -147 -148 -293 -241 -475 -304 -157 -53 -338 -65
-454 -30 -71 22 -85 36 -78 79 l4 28 66 -15 c82 -18 256 -20 337 -3 455 95
767 409 876 881 29 124 36 359 15 526 -30 246 -113 515 -227 733 -53 102 -56
111 -35 111 8 0 51 -74 103 -177z m-2677 12 c11 -13 9 -20 -9 -39 -20 -21 -20
-24 -6 -36 14 -12 13 -15 -14 -26 -16 -7 -51 -33 -78 -59 -88 -84 -206 -154
-358 -214 -44 -17 -91 -38 -105 -47 -25 -15 -25 -15 10 -9 l35 6 -35 -22 -35
-23 54 -8 c61 -9 87 -23 30 -15 -48 6 -54 0 -54 -48 0 -25 -4 -39 -12 -38 -6
2 -14 -18 -18 -47 -6 -41 -13 -54 -38 -72 -44 -31 -69 -60 -63 -74 3 -8 -2
-11 -17 -8 -11 2 -24 -1 -27 -6 -4 -6 -23 -11 -44 -12 -32 -1 -37 -4 -32 -22
2 -12 7 -39 10 -61 5 -30 4 -34 -3 -19 -5 12 -12 34 -15 50 -3 16 -9 43 -14
59 l-9 30 -9 -40 c-11 -58 -9 -203 5 -254 18 -63 5 -62 -24 2 -69 149 -26 428
83 540 51 53 95 83 264 175 218 120 320 190 439 301 59 54 70 59 89 36z m4640
-115 c16 -9 18 -15 10 -36 -17 -45 -12 -58 37 -84 40 -21 103 -89 103 -111 0
-4 -9 -11 -20 -14 -11 -3 -20 -15 -20 -25 0 -14 -38 -37 -46 -27 -1 1 -18 28
-38 60 -21 32 -42 57 -48 55 -13 -5 -57 -112 -64 -158 -5 -32 -2 -37 30 -57
41 -26 79 -75 95 -122 15 -45 14 -61 -3 -61 -7 0 -26 -18 -41 -40 -40 -58
-108 -93 -165 -87 l-45 5 -37 -61 c-20 -34 -40 -70 -44 -79 -8 -24 -34 -23
-34 1 0 10 6 36 13 57 30 84 30 94 3 94 -50 0 -126 94 -126 155 0 21 8 30 46
47 48 21 63 16 64 -20 0 -24 30 -71 51 -83 25 -13 27 -11 65 79 l27 62 -61 63
c-66 69 -89 122 -78 180 9 46 43 96 86 125 31 21 43 23 104 19 l69 -5 16 39
c17 42 22 44 51 29z m-6930 -50 c23 -45 19 -43 89 -30 52 10 146 -1 165 -20 5
-5 0 -30 -13 -64 l-23 -55 -31 20 c-34 20 -92 26 -102 9 -3 -5 7 -42 23 -82
l30 -73 56 3 c97 5 160 -30 192 -106 37 -90 -11 -210 -96 -237 -18 -6 -18 -8
-2 -50 9 -25 20 -45 24 -45 4 0 8 -9 8 -21 0 -11 -4 -18 -9 -15 -5 3 -14 -1
-21 -9 -13 -16 -32 -21 -28 -7 4 14 -23 81 -39 93 -10 9 -39 12 -88 10 -80 -3
-153 12 -162 35 -8 22 6 81 24 99 14 15 17 14 37 -3 21 -20 126 -41 126 -26 0
5 -12 42 -26 84 l-25 75 -68 0 c-85 0 -130 27 -166 99 -43 87 -31 151 42 217
37 33 38 36 29 78 -7 33 -6 45 5 52 23 14 28 11 49 -31z m-741 -17 c-9 -11
-15 -11 -28 -1 -9 7 -18 14 -20 15 -2 1 2 9 9 18 12 14 15 14 31 -1 15 -13 16
-20 8 -31z m7500 43 c-2 -2 -17 -6 -34 -10 -22 -5 -26 -4 -15 4 14 9 59 15 49
6z m-6592 -12 c-3 -3 -12 -4 -19 -1 -8 3 -5 6 6 6 11 1 17 -2 13 -5z m-112
-22 c-3 -3 -11 0 -18 7 -9 10 -8 11 6 5 10 -3 15 -9 12 -12z m42 12 c-3 -3
-12 -4 -19 -1 -8 3 -5 6 6 6 11 1 17 -2 13 -5z m2487 -22 c3 -5 -6 -62 -19
-128 -44 -225 -43 -276 5 -199 53 85 210 186 344 220 240 60 481 39 695 -61
117 -55 188 -109 257 -195 52 -63 97 -146 88 -160 -8 -13 -102 -21 -229 -20
-210 3 -333 -34 -472 -143 -85 -66 -140 -136 -190 -241 -34 -72 -38 -88 -38
-160 -1 -65 -6 -90 -27 -135 -25 -53 -49 -134 -62 -213 l-7 -37 -45 30 c-106
73 -211 202 -283 346 -48 96 -103 275 -126 409 -40 231 18 695 86 695 10 0 20
-4 23 -8z m-3054 -77 l34 -35 -34 -35 -34 -35 -38 37 -37 36 32 34 c18 18 34
33 38 33 3 0 20 -16 39 -35z m8008 -42 l-22 -24 -25 25 -25 25 25 20 c24 19
24 19 47 -2 l22 -21 -22 -23z m-7648 54 c0 -2 -10 -12 -22 -23 l-23 -19 19 23
c18 21 26 27 26 19z m4603 -348 l52 -2 -55 -7 c-30 -4 -71 -12 -90 -19 -19 -6
-38 -11 -41 -11 -3 0 2 24 12 53 10 28 25 95 34 147 26 154 30 153 33 -7 l3
-153 52 -1z m2443 199 c-3 -13 -6 -31 -6 -41 0 -10 -4 -15 -10 -12 -14 9 -12
-28 3 -45 8 -10 5 -9 -13 2 -14 8 -24 18 -23 22 1 4 9 27 19 51 17 46 41 63
30 23z m-1884 -137 c9 -195 -76 -486 -179 -616 -46 -58 -129 -107 -211 -124
-57 -12 -238 -13 -287 -2 -23 5 -12 9 50 15 380 35 516 180 554 592 7 65 17
141 23 168 l11 50 18 -23 c11 -13 20 -40 21 -60z m-3198 30 c4 -5 -3 -7 -14
-4 -23 6 -26 13 -6 13 8 0 17 -4 20 -9z m-1994 -21 c6 -11 8 -20 6 -20 -3 0
-10 9 -16 20 -6 11 -8 20 -6 20 3 0 10 -9 16 -20z m-757 -8 c13 -14 14 -21 5
-30 -16 -16 -33 -15 -48 3 -10 12 -10 18 0 30 16 19 23 19 43 -3z m842 -75
c17 -9 26 -16 22 -17 -16 0 -63 29 -82 51 l-20 24 25 -21 c14 -12 39 -29 55
-37z m7764 -83 l-30 -31 -32 31 -33 31 30 33 30 32 33 -32 33 -32 -31 -32z
m-3132 80 c-3 -3 -12 -4 -19 -1 -8 3 -5 6 6 6 11 1 17 -2 13 -5z m-4487 -31
c0 -12 -3 -14 -8 -6 -4 6 -30 13 -57 16 l-50 3 58 2 c48 2 57 -1 57 -15z
m2245 -21 l50 -17 7 -65 c9 -73 5 -101 -7 -55 -5 17 -13 33 -19 38 -8 5 -6 10
4 17 12 8 9 10 -12 10 -15 0 -30 5 -33 10 -3 6 -17 10 -31 10 -13 0 -24 3 -24
8 0 8 -75 29 -148 41 -76 14 -57 21 54 21 76 -1 124 -6 159 -18z m-2232 -21
c3 -14 0 -17 -14 -14 -11 3 -22 10 -26 16 -4 6 0 8 10 4 10 -3 17 -2 17 3 0
16 7 11 13 -9z m4515 13 c14 -4 22 -13 20 -23 -3 -12 -22 -18 -88 -24 -47 -4
-159 -21 -250 -37 -91 -17 -191 -33 -222 -37 -32 -3 -58 -10 -58 -15 0 -4 -19
1 -42 13 l-43 22 260 52 c246 50 367 64 423 49z m-743 -125 c42 -12 95 -45 95
-59 0 -4 -19 -3 -42 2 -58 13 -281 3 -341 -15 -26 -9 -64 -27 -83 -42 -38 -29
-91 -102 -81 -112 4 -3 -14 -29 -41 -57 -59 -65 -83 -95 -135 -173 -44 -67
-60 -67 -45 -1 11 50 35 98 110 221 33 54 58 100 55 104 -9 8 -195 -184 -231
-237 l-16 -24 0 25 c0 35 61 134 123 198 92 95 181 143 327 177 63 15 243 11
305 -7z m-2206 -49 c16 -33 28 -60 26 -60 -2 0 3 -16 11 -36 8 -20 13 -38 11
-40 -2 -3 -19 34 -36 81 -18 46 -37 87 -42 90 -5 4 -9 10 -9 16 0 21 12 6 39
-51z m-62 8 c-3 -8 -6 -5 -6 6 -1 11 2 17 5 13 3 -3 4 -12 1 -19z m5373 12 c0
-5 -5 -10 -11 -10 -5 0 -7 5 -4 10 3 6 8 10 11 10 2 0 4 -4 4 -10z m-235 -20
c-3 -5 -14 -10 -23 -10 -15 0 -15 2 -2 10 20 13 33 13 25 0z m-1375 -65 c227
-80 525 -230 709 -360 307 -215 487 -438 589 -727 36 -100 64 -236 51 -244 -5
-3 -9 -26 -9 -52 0 -66 -42 -245 -80 -338 -140 -352 -486 -672 -1009 -933
-336 -169 -776 -304 -1201 -370 -164 -26 -701 -91 -750 -91 -31 -1 -33 -2 -16
-12 29 -16 298 -23 408 -9 51 6 120 13 153 15 33 3 98 8 145 11 47 4 82 5 79
1 -17 -18 -587 -72 -913 -87 -443 -20 -920 18 -1373 111 -392 81 -828 254
-1196 475 -281 170 -575 446 -707 665 -189 315 -197 619 -25 978 121 252 294
441 582 635 118 80 290 174 422 232 88 39 100 37 101 -10 0 -11 11 -43 24 -72
l24 -52 -132 -75 c-400 -227 -644 -484 -740 -778 -100 -309 -27 -618 213 -899
146 -171 268 -273 473 -395 459 -272 974 -430 1633 -499 209 -22 698 -31 937
-16 608 38 1257 196 1693 413 466 233 795 584 880 940 22 93 29 232 16 317
-46 293 -247 576 -556 783 -121 81 -406 234 -502 270 -31 12 -41 21 -37 31 5
13 17 10 77 -14 178 -74 376 -182 503 -277 88 -65 86 -63 176 -151 l66 -63 76
57 c42 32 76 59 76 61 0 8 -229 180 -297 222 -122 76 -276 155 -419 216 -157
66 -225 87 -231 69 -9 -26 -23 -12 -23 22 0 19 2 35 4 35 2 0 50 -16 106 -35z
m-3773 -37 c-2 -13 -4 -3 -4 22 0 25 2 35 4 23 2 -13 2 -33 0 -45z m5076 22
c-3 -11 -10 -23 -16 -27 -5 -3 -8 -2 -5 3 3 5 8 17 11 27 9 24 16 22 10 -3z
m-5149 -70 c5 -17 4 -20 -2 -10 -5 8 -13 26 -16 40 -5 17 -4 20 2 10 5 -8 13
-26 16 -40z m-2035 1 c6 -22 27 -56 47 -76 l35 -36 -35 -41 c-19 -22 -38 -53
-41 -69 -10 -45 -22 -43 -44 6 -11 24 -31 56 -45 70 l-25 25 35 52 c20 28 38
65 41 80 8 39 18 35 32 -11z m7956 -97 l27 -35 -32 -35 c-17 -20 -33 -49 -37
-65 -3 -16 -9 -29 -13 -29 -4 0 -19 24 -34 53 -14 30 -35 62 -46 72 -19 17
-19 18 12 48 17 17 37 47 45 66 l15 35 19 -38 c10 -21 30 -54 44 -72z m-4008
-46 c-25 -46 -52 -110 -62 -143 -24 -82 -26 -87 -20 -36 7 52 36 124 83 204
51 84 50 69 -1 -25z m-1979 -85 c2 -1 -16 -12 -40 -24 -263 -134 -519 -352
-648 -551 -249 -384 -185 -779 182 -1134 104 -100 178 -157 315 -240 395 -240
924 -405 1493 -468 428 -47 921 -47 1265 -1 294 41 655 112 855 170 381 111
792 334 997 542 118 120 224 288 275 434 31 90 33 101 33 244 0 130 -3 159
-23 220 -35 105 -94 222 -156 309 -31 42 -52 74 -46 71 5 -3 23 4 40 16 18 14
33 19 38 13 130 -151 208 -299 247 -464 22 -95 19 -266 -5 -369 -70 -291 -317
-580 -690 -805 -373 -226 -940 -398 -1545 -470 -233 -28 -657 -41 -928 -28
-406 20 -634 51 -953 132 -644 164 -1149 438 -1415 767 -162 202 -231 380
-231 593 0 251 97 462 312 680 132 134 251 221 515 373 l60 34 25 -21 c14 -11
27 -22 28 -23z m96 -34 l43 -11 7 -60 c6 -58 91 -281 177 -463 18 -38 35 -74
38 -80 2 -5 -9 2 -24 18 -15 15 -33 26 -39 25 -14 -3 -58 21 -71 38 -14 18
-102 37 -122 25 -13 -7 -9 -11 20 -20 52 -17 120 -73 153 -126 16 -25 36 -45
44 -45 20 -1 51 -25 43 -34 -4 -4 0 -4 10 0 31 11 19 -17 -37 -91 -86 -111
-175 -191 -253 -226 -162 -74 -194 -91 -219 -125 -37 -48 -41 -106 -15 -193
23 -76 70 -135 116 -147 13 -3 27 -14 30 -24 3 -10 22 -33 41 -49 28 -26 43
-31 83 -31 32 0 53 -5 62 -16 28 -34 93 -57 174 -62 106 -6 163 19 266 115
103 95 224 163 389 216 177 58 382 158 460 224 21 18 41 30 43 26 2 -5 8 -34
11 -65 7 -54 5 -62 -30 -125 -117 -213 -263 -345 -478 -433 -50 -21 -113 -51
-141 -67 -27 -16 -59 -32 -69 -36 -35 -13 -7 -20 36 -9 24 6 59 13 78 17 72
11 130 27 137 38 4 6 0 8 -11 4 -9 -4 -15 -3 -12 2 3 5 14 11 25 14 19 5 19 4
0 -37 -34 -74 -19 -161 34 -203 15 -11 53 -26 86 -32 33 -7 62 -18 65 -26 10
-27 85 -73 128 -78 24 -4 61 -3 83 1 32 6 45 4 66 -11 41 -29 104 -32 173 -8
53 19 61 19 88 5 41 -21 116 -28 163 -15 22 6 69 31 105 56 35 25 69 45 75 45
7 0 20 9 30 20 16 18 14 25 -7 21 -16 -2 -6 8 48 49 l55 42 62 -26 c116 -48
210 -68 300 -63 114 7 210 23 286 48 36 12 79 23 96 24 85 6 406 160 422 202
3 8 -3 24 -14 36 -11 12 -61 81 -111 152 -49 72 -109 153 -131 180 -23 27 -41
53 -41 57 0 4 15 15 33 24 17 9 64 40 102 69 107 79 111 80 132 49 18 -28 21
-100 5 -116 -5 -5 -27 -16 -48 -23 -61 -21 -20 -28 92 -15 156 17 474 80 474
94 0 7 -11 19 -25 26 -24 13 -215 212 -215 224 0 3 10 6 23 6 12 0 61 11 109
23 103 28 148 59 318 222 115 111 175 160 302 248 l66 47 59 -103 c90 -154
116 -224 133 -354 42 -318 -177 -680 -564 -931 -107 -69 -317 -174 -471 -236
-143 -57 -482 -156 -545 -159 -19 -1 -37 -5 -40 -9 -13 -18 -401 -78 -620 -97
-430 -38 -1042 -14 -1425 55 -169 31 -483 110 -620 157 -399 137 -759 352
-941 563 -303 351 -322 727 -56 1080 103 136 264 278 437 384 66 41 206 120
213 120 2 0 23 -5 46 -11z m190 -149 c26 -44 51 -78 56 -75 6 4 10 3 11 -2 3
-44 10 -68 19 -71 5 -2 10 -10 10 -18 0 -8 5 -14 11 -14 5 0 7 -4 4 -10 -3 -5
-2 -10 4 -10 6 0 13 -17 17 -37 4 -21 11 -43 15 -49 10 -12 36 -84 76 -209 14
-44 33 -88 42 -98 15 -17 12 -22 -37 -64 -29 -25 -66 -64 -82 -87 -15 -22 -47
-61 -69 -86 -22 -25 -41 -52 -41 -61 0 -20 -23 -69 -32 -69 -5 0 -8 -4 -8 -10
0 -6 10 -6 28 1 l27 10 -30 -25 c-16 -14 -48 -32 -70 -42 -74 -31 -90 -39
-187 -93 -53 -29 -101 -63 -106 -75 -10 -20 -11 -19 -11 7 -1 41 32 68 168
137 119 59 201 119 201 146 0 19 -6 18 -43 -10 -18 -14 -89 -52 -158 -86 -70
-33 -143 -72 -163 -85 -27 -18 -36 -21 -36 -10 0 33 58 75 170 122 101 42 124
57 189 118 41 38 100 104 131 145 32 42 65 81 74 89 9 7 16 26 16 41 0 15 -44
121 -98 236 -98 208 -164 363 -178 418 -13 52 30 13 80 -74z m1396 24 c23 -52
24 -57 11 -50 -22 14 -85 -149 -79 -205 3 -31 5 -33 43 -33 33 -1 42 -6 53
-29 7 -15 15 -35 17 -45 2 -9 8 -29 13 -43 8 -20 7 -41 -4 -80 -7 -30 -14 -70
-14 -89 0 -26 -3 -31 -10 -20 -6 10 -10 11 -10 3 0 -8 -14 -13 -34 -13 -61 0
-64 -5 -60 -75 1 -35 17 -145 33 -245 l31 -180 -23 -63 c-41 -113 -105 -195
-333 -429 -144 -147 -165 -162 -179 -117 -9 28 3 44 118 143 157 135 235 232
315 391 l40 80 -34 200 c-80 472 -62 730 64 923 8 12 16 22 18 22 2 0 12 -21
24 -46z m4062 -138 c3 5 3 3 1 -5 -4 -16 18 -54 54 -93 l25 -26 -31 -32 c-16
-18 -38 -55 -47 -83 -24 -75 -25 -75 -51 -11 -13 32 -38 73 -55 91 l-32 33 32
33 c17 17 41 54 53 81 21 48 22 49 34 26 7 -13 14 -19 17 -14z m-1221 -43 c13
-16 12 -17 -3 -4 -10 7 -18 15 -18 17 0 8 8 3 21 -13z m-2190 -290 c-6 -92
-18 -193 -26 -223 l-14 -55 5 55 c2 30 8 125 13 210 9 144 17 198 28 186 3 -2
0 -80 -6 -173z m-963 40 c88 -6 92 -7 92 -30 0 -27 -9 -28 -96 -13 -78 14
-146 39 -138 52 3 5 16 7 28 4 11 -3 63 -9 114 -13z m-184 -326 c9 -47 -20
-115 -60 -144 -31 -22 -204 -105 -204 -97 0 10 42 44 92 77 108 69 147 136
135 230 l-5 42 17 -35 c10 -19 21 -52 25 -73z m-3004 38 l24 -26 -27 -27 -27
-27 -27 27 -27 27 25 25 c31 31 31 31 59 1z m7709 -51 l-23 -24 -22 21 -23 21
20 28 21 27 25 -24 24 -25 -22 -24z m-2156 -271 c26 -34 47 -64 47 -67 0 -3
-8 -6 -18 -6 -10 0 -76 -13 -148 -30 -71 -16 -132 -30 -136 -30 -4 0 -7 22 -6
50 0 75 -46 140 -100 140 -16 0 -313 -189 -344 -219 -4 -3 23 -38 60 -77 85
-88 256 -336 239 -346 -7 -4 -26 -8 -42 -8 -17 0 -84 -16 -150 -36 -119 -35
-121 -36 -265 -31 -91 3 -160 10 -185 20 l-40 14 80 26 c45 14 109 31 143 38
53 11 62 16 62 35 0 36 -59 166 -97 212 l-34 42 -117 -80 c-75 -52 -122 -78
-132 -74 -8 4 -23 6 -32 6 -9 0 -22 5 -28 13 -9 11 12 30 105 97 184 132 213
151 335 218 63 35 160 91 215 126 113 70 291 161 349 179 l39 12 76 -82 c42
-45 98 -109 124 -142z m-3348 30 c-24 -56 -82 -122 -144 -161 -31 -19 -82 -55
-113 -78 -32 -24 -60 -39 -63 -34 -10 16 48 71 152 142 99 67 163 132 163 165
0 8 4 11 10 8 6 -4 4 -19 -5 -42z m1902 -366 c-13 -28 -44 -77 -68 -107 -66
-81 -79 -102 -163 -255 -42 -77 -76 -136 -76 -132 0 13 108 244 139 295 15 26
52 83 82 127 30 44 66 106 79 137 l25 56 3 -34 c2 -21 -6 -55 -21 -87z m2993
-120 c0 -233 -29 -489 -55 -488 -16 1 -29 331 -16 441 13 118 27 189 43 207
22 26 28 -9 28 -160z m-6580 60 c0 -5 21 -41 46 -80 46 -71 46 -72 50 -172 12
-365 15 -397 29 -426 16 -29 28 -39 21 -16 -3 6 -7 120 -10 252 l-6 240 35
-40 c65 -73 63 -64 74 -305 6 -124 12 -249 13 -278 1 -53 1 -53 105 -162 57
-60 143 -140 191 -178 207 -164 577 -367 855 -468 l37 -13 0 284 c0 176 4 285
10 285 5 0 34 -9 65 -21 l55 -20 0 -264 c0 -259 0 -265 -21 -276 -27 -14 -17
-23 46 -41 l50 -14 -4 284 -3 285 28 -7 c16 -4 46 -12 67 -17 l37 -10 0 -284
0 -284 38 -10 c57 -17 63 -15 52 15 -12 29 -14 544 -2 544 4 0 23 -4 42 -9 19
-5 47 -12 63 -15 l27 -6 0 -285 0 -285 28 -6 c15 -3 33 -7 40 -10 7 -2 10 1 7
6 -3 5 -6 71 -6 147 0 76 -3 158 -6 183 l-6 45 -12 -29 c-12 -28 -12 -29 -17
-5 -2 13 -5 63 -7 112 -2 80 -1 87 16 87 16 0 19 6 15 30 -5 37 11 39 27 4 7
-16 17 -24 26 -20 8 3 41 0 75 -6 l61 -12 -3 -268 c-2 -147 1 -268 6 -268 4 0
6 -9 3 -19 -5 -20 10 -31 41 -31 16 0 17 24 14 285 -3 322 -12 291 83 278 l47
-6 -4 -289 -4 -288 23 0 24 0 -3 255 c-3 239 -2 255 15 255 15 0 16 3 7 20 -8
16 -8 20 4 20 8 0 19 -12 24 -27 l10 -28 1 33 c1 30 3 32 40 32 21 0 53 -3 70
-6 l31 -6 0 -265 c0 -174 -4 -271 -11 -285 -14 -27 2 -38 55 -38 l39 0 -7 290
-6 291 82 -3 c79 -3 83 -4 82 -25 0 -13 -1 -130 -2 -260 l-3 -238 -34 -25
c-19 -14 -35 -28 -35 -32 0 -5 36 -8 81 -8 74 0 80 2 73 18 -5 9 -10 140 -12
290 l-3 273 78 -3 78 -3 2 -255 c2 -278 3 -275 -58 -300 -16 -7 -29 -17 -29
-22 0 -15 889 -1 930 15 8 3 58 8 110 10 53 3 82 1 65 -3 -16 -4 -64 -9 -105
-10 -61 -1 -69 -3 -46 -11 20 -5 67 -3 135 7 105 16 136 24 91 24 -40 0 -15
11 46 20 128 18 146 19 69 1 -44 -10 -66 -19 -50 -19 47 0 140 22 137 33 -2 5
21 15 50 22 68 16 84 15 33 -3 l-40 -13 50 6 c77 9 50 -2 -60 -25 -408 -85
-658 -107 -1220 -107 -395 1 -459 3 -625 23 -993 122 -1703 397 -2229 862
-193 170 -361 431 -401 620 -6 30 -13 170 -16 310 l-5 255 26 -40 c13 -22 25
-44 25 -48z m4125 -29 c19 -40 32 -75 27 -79 -4 -3 -68 -23 -142 -43 -74 -21
-143 -40 -152 -42 -10 -3 -18 -9 -18 -13 0 -4 25 -34 55 -66 123 -133 63 -185
-152 -130 -119 31 -136 39 -154 72 -7 13 -18 23 -26 23 -19 0 -18 2 31 78 l45
69 96 16 c103 17 158 43 290 141 33 24 61 45 63 45 1 1 18 -31 37 -71z m-385
-39 c0 -10 -69 -44 -75 -37 -4 3 3 25 15 49 l22 43 19 -25 c10 -13 19 -27 19
-30z m-1050 -193 c0 -2 -8 -10 -17 -17 -16 -13 -17 -12 -4 4 13 16 21 21 21
13z m1593 -93 c-7 -2 -21 -2 -30 0 -10 3 -4 5 12 5 17 0 24 -2 18 -5z m-227
-38 c1 -8 -2 -13 -7 -9 -5 3 -9 12 -9 21 0 19 13 9 16 -12z m-3632 -310 c4
-110 6 -225 4 -254 l-3 -55 -58 55 -58 54 -9 135 c-6 74 -11 192 -12 262 l-3
127 66 -62 65 -62 8 -200z m3819 318 c-7 -2 -19 -2 -25 0 -7 3 -2 5 12 5 14 0
19 -2 13 -5z m-60 -10 c-7 -2 -19 -2 -25 0 -7 3 -2 5 12 5 14 0 19 -2 13 -5z
m-3543 -404 c0 -69 3 -188 7 -263 l6 -138 -70 35 -70 36 -6 113 c-4 62 -7 188
-7 281 l0 167 70 -52 70 -52 0 -127z m198 -258 l2 -261 -58 29 -59 30 -6 83
c-4 46 -7 167 -7 270 l0 188 63 -38 62 -39 3 -262z m4865 57 c-2 -112 -6 -205
-9 -207 -2 -2 -4 86 -4 196 0 171 3 213 16 213 1 0 0 -91 -3 -202z m-4643
-180 c0 -208 -3 -268 -12 -268 -7 1 -42 16 -78 34 l-65 33 -3 277 -2 278 80
-43 80 -43 0 -268z m4407 60 c-1 -40 -3 -10 -3 67 0 77 1 110 3 73 2 -37 2
-100 0 -140z m-4247 133 l75 -37 3 -259 c3 -242 -1 -311 -11 -205 -3 25 -7 52
-10 60 -3 8 -10 85 -15 170 l-10 155 4 -227 4 -228 -25 10 c-13 5 -42 18 -63
29 -51 26 -52 33 -52 334 0 183 3 237 13 236 6 0 46 -17 87 -38z m3790 -45 c0
-2 -7 -7 -16 -10 -8 -3 -12 -2 -9 4 6 10 25 14 25 6z m-255 -16 c-27 -12 -43
-12 -25 0 8 5 22 9 30 9 10 0 8 -3 -5 -9z m165 -15 c-44 -17 -60 -18 -60 -4 0
5 4 8 9 5 5 -4 20 -2 33 3 12 6 30 10 38 10 8 0 -1 -7 -20 -14z m-217 -2 c-7
-2 -21 -2 -30 0 -10 3 -4 5 12 5 17 0 24 -2 18 -5z m116 -27 c-6 -7 -163 -45
-167 -42 -2 2 23 12 55 21 32 9 63 19 68 20 15 5 49 6 44 1z m-212 -52 c-3 -3
-12 -4 -19 -1 -8 3 -5 6 6 6 11 1 17 -2 13 -5z m-50 -10 c-3 -3 -12 -4 -19 -1
-8 3 -5 6 6 6 11 1 17 -2 13 -5z m-82 -14 c-3 -5 -18 -10 -33 -9 -24 0 -25 1
-7 9 28 12 47 12 40 0z m322 -272 c-1 -51 -3 -10 -3 92 0 102 2 143 3 93 2
-51 2 -135 0 -185z m-412 252 c-16 -4 -46 -8 -65 -8 l-35 0 30 8 c17 4 46 8
65 8 l35 0 -30 -8z m-2968 -47 c-3 -10 -5 -2 -5 17 0 19 2 27 5 18 2 -10 2
-26 0 -35z m2446 32 c1 -5 -9 -11 -23 -12 -22 -2 -23 -2 -5 6 19 8 19 9 -5 14
-23 5 -23 5 3 4 15 -1 29 -6 30 -12z m-59 -4 c3 -5 0 -11 -7 -14 -18 -7 -67 3
-67 14 0 12 67 12 74 0z m-96 -8 c-10 -2 -28 -2 -40 0 -13 2 -5 4 17 4 22 1
32 -1 23 -4z m854 -160 c-4 -216 -9 -224 -11 -15 0 94 2 172 7 172 4 0 6 -71
4 -157z m-2755 5 c-2 -24 -4 -5 -4 42 0 47 2 66 4 43 2 -24 2 -62 0 -85z
m2573 108 c0 -2 -7 -6 -15 -10 -8 -3 -15 -1 -15 4 0 6 7 10 15 10 8 0 15 -2
15 -4z m1520 -1 c0 -2 -10 -9 -22 -15 -22 -11 -22 -10 -4 4 21 17 26 19 26 11z
m-1643 -21 c-3 -3 -12 -4 -19 -1 -8 3 -5 6 6 6 11 1 17 -2 13 -5z m-1985 -32
c8 -32 -4 -92 -18 -92 -10 0 -14 15 -14 60 0 47 3 58 14 54 8 -3 16 -13 18
-22z m1926 21 c-10 -2 -28 -2 -40 0 -13 2 -5 4 17 4 22 1 32 -1 23 -4z m-76
-50 c-5 -76 -10 -83 -11 -15 0 34 2 62 7 62 4 0 6 -21 4 -47z m-1655 31 c-3
-3 -12 -4 -19 -1 -8 3 -5 6 6 6 11 1 17 -2 13 -5z m1563 -94 c0 -92 -2 -103
-23 -123 -12 -12 -39 -41 -60 -65 l-37 -42 0 159 0 160 43 4 c23 2 50 4 60 5
15 2 17 -9 17 -98z m-218 -116 l-3 -195 -37 -32 c-20 -18 -44 -40 -54 -49 -10
-10 -20 -18 -23 -18 -3 0 -5 108 -5 239 l0 240 48 4 c26 2 54 4 62 5 13 2 15
-24 12 -194z m-502 -99 l0 -275 -27 -11 c-21 -8 -34 -7 -53 3 l-25 14 -5 264
c-3 146 -4 268 -2 273 2 4 28 7 58 7 l54 0 0 -275z m259 9 c0 -146 -3 -272 -6
-280 -3 -10 -21 -14 -59 -14 l-54 0 0 280 0 280 60 0 60 0 -1 -266z m-1122
179 c-3 -10 -5 -4 -5 12 0 17 2 24 5 18 2 -7 2 -21 0 -30z m1690 15 c-3 -8 -6
-5 -6 6 -1 11 2 17 5 13 3 -3 4 -12 1 -19z m1593 18 c0 -2 -7 -7 -16 -10 -8
-3 -12 -2 -9 4 6 10 25 14 25 6z m-500 -226 c-8 -5 -19 -10 -25 -10 -5 0 -3 5
5 10 8 5 20 10 25 10 6 0 3 -5 -5 -10z m-3183 -82 c-3 -8 -6 -5 -6 6 -1 11 2
17 5 13 3 -3 4 -12 1 -19z m-2 -67 c-6 -5 -25 10 -25 20 0 5 6 4 14 -3 8 -7
12 -15 11 -17z"/>
<path d="M5673 8909 c-18 -12 -31 -25 -28 -29 3 -4 -3 -7 -12 -6 -12 1 -22
-12 -32 -40 -13 -37 -13 -44 5 -80 24 -50 75 -84 126 -84 29 0 47 8 74 33 65
59 56 162 -19 207 -41 25 -74 25 -114 -1z m87 -1 c0 -5 -7 -8 -16 -8 -13 0
-11 -6 10 -26 31 -31 34 -49 7 -34 -11 5 -41 10 -68 10 -44 1 -47 2 -29 15 14
11 16 15 5 15 -8 0 -2 8 12 18 27 17 79 24 79 10z"/>
<path d="M3268 9113 c-39 -46 -29 -85 28 -103 19 -7 38 -10 41 -7 8 8 -31 120
-43 124 -6 2 -17 -4 -26 -14z"/>
<path d="M3446 8878 c32 -103 36 -107 68 -65 22 30 15 60 -20 75 -41 19 -56
15 -48 -10z"/>
<path d="M7026 8672 c-3 -6 -1 -14 5 -17 14 -9 20 -2 10 14 -6 8 -11 9 -15 3z"/>
<path d="M5205 8230 c3 -5 8 -10 11 -10 2 0 4 5 4 10 0 6 -5 10 -11 10 -5 0
-7 -4 -4 -10z"/>
<path d="M1848 5240 c4 -25 6 -27 22 -17 21 12 18 22 -9 36 -15 8 -17 6 -13
-19z"/>
<path d="M1411 3844 c0 -11 3 -14 6 -6 3 7 2 16 -1 19 -3 4 -6 -2 -5 -13z"/>
<path d="M7727 6411 l16 -41 14 27 c15 28 10 37 -24 47 -22 7 -22 7 -6 -33z"/>
<path d="M8316 5075 c4 -8 10 -12 15 -9 11 6 2 24 -11 24 -5 0 -7 -7 -4 -15z"/>
<path d="M8340 5019 c11 -38 16 -44 25 -30 3 6 1 11 -6 11 -7 0 -5 6 6 13 21
16 13 37 -15 37 -16 0 -17 -4 -10 -31z"/>
<path d="M1974 7411 c-35 -21 -64 -75 -64 -118 0 -35 31 -86 64 -108 29 -19
101 -31 108 -19 8 13 -55 257 -67 261 -5 1 -24 -6 -41 -16z"/>
<path d="M2269 6933 c-5 -32 45 -250 61 -266 11 -12 63 17 94 53 31 38 36 111
10 149 -28 39 -161 91 -165 64z m126 -113 c21 -40 19 -54 -9 -87 l-24 -28 -7
30 c-3 17 -12 56 -19 87 l-14 57 29 -15 c16 -8 35 -28 44 -44z"/>
<path d="M2355 6801 c7 -28 10 -52 7 -55 -3 -3 2 -6 11 -6 26 0 26 63 0 93
-27 29 -32 19 -18 -32z"/>
<path d="M3932 7655 c-55 -24 -98 -63 -128 -117 -26 -47 -29 -63 -29 -139 0
-78 3 -90 30 -135 43 -69 121 -108 213 -108 77 1 122 17 176 64 174 153 62
451 -168 450 -33 -1 -76 -7 -94 -15z m102 -126 c33 -26 35 -71 4 -93 -32 -22
-55 -20 -83 9 -30 29 -32 58 -5 85 26 26 51 25 84 -1z m129 -241 c14 -22 -7
-48 -40 -48 -31 0 -40 26 -17 51 20 23 42 22 57 -3z"/>
<path d="M5254 7639 c-142 -69 -212 -218 -169 -365 22 -76 96 -153 168 -173
116 -33 255 7 340 98 54 58 72 111 63 194 -11 105 -69 187 -168 237 -76 37
-168 41 -234 9z m129 -141 c34 -40 11 -91 -41 -91 -40 0 -72 28 -72 64 0 56
73 74 113 27z m154 -253 c8 -21 -26 -57 -51 -53 -12 2 -22 10 -24 19 -7 37 62
68 75 34z"/>
<path d="M8087 7355 c-41 -28 -52 -58 -44 -112 6 -36 50 -93 72 -93 8 0 64
146 83 218 6 23 -70 14 -111 -13z"/>
<path d="M8130 6852 c0 -16 -11 -56 -25 -89 -13 -34 -27 -80 -31 -102 l-7 -41
38 0 c68 0 120 37 139 98 11 32 -35 122 -73 145 -38 23 -41 22 -41 -11z m70
-93 c5 -16 3 -26 -4 -26 -6 0 -21 -3 -33 -7 -13 -4 -23 -4 -23 0 0 4 10 19 23
32 12 14 16 22 10 18 -7 -4 -13 -2 -13 4 0 22 34 5 40 -21z"/>
<path d="M8453 5328 c-13 -6 -23 -17 -23 -25 0 -7 -4 -13 -10 -13 -5 0 -10 -6
-10 -14 0 -22 34 -76 45 -73 11 3 49 76 60 115 5 18 3 22 -17 21 -13 0 -33 -5
-45 -11z"/>
<path d="M8480 5126 c0 -2 8 -10 18 -17 15 -13 16 -12 3 4 -13 16 -21 21 -21
13z"/>
<path d="M8490 5016 c0 -9 -12 -39 -26 -66 -40 -76 -10 -98 46 -34 25 29 30
42 25 63 -4 14 -7 26 -8 26 -1 1 -10 7 -19 14 -15 12 -18 11 -18 -3z"/>
<path d="M1667 5282 c-9 -10 -20 -32 -23 -49 -8 -40 30 -83 74 -83 l29 0 -26
75 c-14 41 -29 75 -32 75 -3 0 -13 -8 -22 -18z"/>
<path d="M1866 5048 c15 -51 54 -128 63 -128 15 0 51 51 51 72 0 22 -18 60
-34 70 -6 4 -28 8 -49 8 -35 0 -38 -2 -31 -22z m79 -48 c9 -16 11 -30 6 -30
-11 0 -31 32 -31 49 0 19 9 12 25 -19z"/>
<path d="M3408 3663 c6 -2 18 -2 25 0 6 3 1 5 -13 5 -14 0 -19 -2 -12 -5z"/>
<path d="M3322 3617 c-33 -35 -28 -65 18 -109 23 -21 45 -38 50 -38 14 0 12
24 -2 38 -9 9 -9 12 0 12 7 0 12 9 12 20 0 11 -4 20 -10 20 -5 0 -10 9 -10 20
0 11 -4 20 -10 20 -5 0 -10 -9 -10 -19 0 -29 -26 -33 -39 -5 -6 13 -7 23 -2
21 5 -1 9 2 9 7 0 5 6 12 13 17 8 4 11 10 8 13 -3 3 -15 -4 -27 -17z"/>
<path d="M4540 3145 c8 -9 10 -27 6 -46 -3 -16 -2 -28 3 -25 24 15 15 86 -11
86 -7 0 -6 -5 2 -15z"/>
<path d="M4135 2371 l-20 -8 20 -6 c11 -3 40 -9 65 -12 l45 -7 -24 21 c-25 22
-51 25 -86 12z"/>
<path d="M6280 2330 c-188 -82 -330 -116 -450 -106 -87 7 -208 29 -286 52 -29
8 -70 14 -91 12 l-38 -4 56 -27 c71 -35 180 -62 301 -77 79 -9 111 -8 184 4
189 33 304 78 389 151 50 43 41 42 -65 -5z"/>
<path d="M6363 2260 c-18 -21 -33 -44 -33 -50 0 -6 -4 -9 -9 -6 -5 3 -14 -1
-21 -9 -11 -14 -10 -14 14 -5 69 26 87 42 82 75 -2 11 -1 14 1 8 5 -14 25 -17
36 -7 7 7 -17 34 -30 34 -4 0 -23 -18 -40 -40z m11 -25 c-4 -8 -10 -12 -15 -9
-11 6 -2 24 11 24 5 0 7 -7 4 -15z"/>
<path d="M4361 934 c0 -11 3 -14 6 -6 3 7 2 16 -1 19 -3 4 -6 -2 -5 -13z"/>
<path d="M6288 943 c7 -3 16 -2 19 1 4 3 -2 6 -13 5 -11 0 -14 -3 -6 -6z"/>
<path d="M5708 863 c6 -2 18 -2 25 0 6 3 1 5 -13 5 -14 0 -19 -2 -12 -5z"/>
<path d="M3102 1748 c-2 -25 0 -29 8 -18 12 18 13 50 2 50 -4 0 -9 -15 -10
-32z"/>
</g>
</svg>
